<svg width="70" height="74" viewBox="0 0 70 74" fill="none" xmlns="http://www.w3.org/2000/svg">
<g clip-path="url(#clip0_9904_15217)">
<path d="M61.3711 0.116455L15.1158 16.9984L61.3711 8.82796V0.116455Z" fill="#FFE600"/>
<path d="M22.5372 42.0332H34.2377V47.4148H15.5204V24.0173H28.7917L31.8969 29.3989H22.5379V33.2601H30.9981V38.1727H22.5379V42.0332H22.5372ZM46.6949 24.0173L42.7203 31.6529L38.7555 24.0173H30.9974L39.172 38.1727V47.4148H46.1678V38.1727L54.3536 24.0173H46.6949Z" fill="#2E2E38"/>
<path d="M54.5055 71.1377C54.5055 71.3022 54.4943 71.5101 54.4838 71.5871H51.3499C51.4045 72.3102 51.898 72.6063 52.4566 72.6063C52.7856 72.6063 53.0922 72.5076 53.3554 72.2444L54.2759 73.0221C53.7936 73.6248 53.0593 73.8439 52.402 73.8439C50.89 73.8439 50.0241 72.6826 50.0241 71.1594C50.0241 69.5046 51.0433 68.4525 52.3145 68.4525C53.6732 68.4525 54.5062 69.6467 54.5062 71.137L54.5055 71.1377ZM51.3716 70.5791H53.2126C53.1685 69.9981 52.7961 69.604 52.2704 69.604C51.646 69.604 51.4045 70.1521 51.3716 70.5791ZM70 71.1377C70 71.3022 69.9888 71.5101 69.9783 71.5871H66.8444C66.899 72.3102 67.3925 72.6063 67.9511 72.6063C68.2801 72.6063 68.5867 72.5076 68.8499 72.2444L69.7704 73.0221C69.2881 73.6248 68.5538 73.8439 67.8965 73.8439C66.3845 73.8439 65.5186 72.6826 65.5186 71.1594C65.5186 69.5046 66.5378 68.4525 67.809 68.4525C69.1677 68.4525 70.0007 69.6467 70.0007 71.137L70 71.1377ZM66.8661 70.5791H68.7071C68.663 69.9981 68.2906 69.604 67.7649 69.604C67.1405 69.604 66.899 70.1521 66.8661 70.5791ZM64.2579 71.8944L65.1126 72.705C64.6744 73.2636 64.0717 73.8446 63.0525 73.8446C61.6392 73.8446 60.5976 72.7162 60.5976 71.1601C60.5976 69.7356 61.4635 68.4532 63.0742 68.4532C63.9947 68.4532 64.6303 68.8697 65.1014 69.5711L64.225 70.4587C63.9184 70.0534 63.5894 69.7356 63.0637 69.7356C62.3511 69.7356 61.9787 70.3383 61.9787 71.1384C61.9787 71.8832 62.3077 72.5517 63.0742 72.5517C63.5453 72.5517 63.9401 72.2997 64.2579 71.8944ZM52.3355 63.3033H51.0643V62.9414C50.7794 63.2592 50.3195 63.4125 49.8589 63.4125C48.5219 63.4125 48.0179 62.4479 48.0179 61.0563V58.1303H49.3108V60.9464C49.3108 61.6478 49.4536 62.1735 50.1767 62.1735C50.8998 62.1735 51.0426 61.6254 51.0426 60.9898V58.1296H52.3355V63.3019V63.3033ZM56.3682 61.7906L56.182 63.1059C55.9188 63.3138 55.4372 63.4125 55.1194 63.4125C54.3305 63.4125 53.7166 62.821 53.7166 61.8781V59.3686H52.9718V58.1303H53.7166V56.7828L55.0095 56.1255V58.131H56.2366V59.3693H55.0095V61.5393C55.0095 61.9887 55.1957 62.1532 55.5135 62.1532C55.8313 62.1532 56.1603 61.9887 56.3682 61.7913V61.7906ZM36.7311 63.3033H35.4382V60.4872C35.4382 59.7858 35.2849 59.2706 34.5618 59.2706C33.8387 59.2706 33.6742 59.7417 33.6742 60.4543V63.3033H32.3813V56.7835L33.6742 56.1262V58.4929C33.9591 58.208 34.3098 58.0218 34.8908 58.0218C36.2607 58.0218 36.7318 59.0739 36.7318 60.3885V63.3033H36.7311ZM59.8087 73.7347H58.4717V70.9186C58.4717 70.1955 58.3072 69.7132 57.5841 69.7132C56.9044 69.7132 56.6853 70.1185 56.6853 70.8857V73.7347H55.3483V68.5624H56.6853V68.9131C56.959 68.6394 57.365 68.4532 57.9453 68.4532C59.3481 68.4532 59.808 69.5382 59.808 70.8094V73.7354L59.8087 73.7347ZM43.0871 68.1137C43.5148 68.1137 43.8543 67.7742 43.8543 67.3465C43.8543 66.9188 43.5148 66.5793 43.0871 66.5793C42.6594 66.5793 42.3199 66.9188 42.3199 67.3465C42.3199 67.7742 42.6594 68.1137 43.0871 68.1137ZM8.92013 68.1137C9.34783 68.1137 9.68733 67.7742 9.68733 67.3465C9.68733 66.9188 9.34783 66.5793 8.92013 66.5793C8.49243 66.5793 8.15293 66.9188 8.15293 67.3465C8.15293 67.7742 8.49243 68.1137 8.92013 68.1137ZM70 60.7056C70 60.8701 69.9888 61.078 69.9783 61.155H66.8444C66.899 61.8781 67.3925 62.1742 67.9511 62.1742C68.2801 62.1742 68.5867 62.0755 68.8499 61.8123L69.7704 62.59C69.2881 63.1927 68.5538 63.4118 67.8965 63.4118C66.3845 63.4118 65.5186 62.2505 65.5186 60.7273C65.5186 59.0725 66.5378 58.0204 67.809 58.0204C69.1677 58.0204 70.0007 59.2146 70.0007 60.7049L70 60.7056ZM66.8661 60.147H68.7071C68.663 59.566 68.2906 59.1719 67.7649 59.1719C67.1405 59.1719 66.899 59.72 66.8661 60.147ZM61.2885 63.3033H60.0173V62.9414C59.7324 63.2592 59.2725 63.4125 58.8119 63.4125C57.4749 63.4125 56.9709 62.4479 56.9709 61.0563V58.1303H58.2638V60.9464C58.2638 61.6478 58.4066 62.1735 59.1297 62.1735C59.8528 62.1735 59.9956 61.6254 59.9956 60.9898V58.1296H61.2885V63.3019V63.3033ZM41.8705 60.7056C41.8705 60.8701 41.8593 61.078 41.8488 61.155H38.7149C38.7695 61.8781 39.263 62.1742 39.8216 62.1742C40.1506 62.1742 40.4572 62.0755 40.7204 61.8123L41.6409 62.59C41.1586 63.1927 40.4243 63.4118 39.767 63.4118C38.255 63.4118 37.3891 62.2505 37.3891 60.7273C37.3891 59.0725 38.4083 58.0204 39.6795 58.0204C41.0382 58.0204 41.8712 59.2146 41.8712 60.7049L41.8705 60.7056ZM38.7366 60.147H40.5776C40.5335 59.566 40.1611 59.1719 39.6354 59.1719C39.011 59.1719 38.7695 59.72 38.7366 60.147ZM49.2233 73.7347H47.8863V73.3952C47.4481 73.713 47.1849 73.8446 46.7138 73.8446C45.2235 73.8446 44.5879 72.5517 44.5879 71.1048C44.5879 69.5375 45.3327 68.4532 46.6809 68.4532C47.1303 68.4532 47.5573 68.5736 47.8863 68.8697V67.2149L49.2233 66.5464V73.7347ZM47.887 72.1352V70.1626C47.6021 69.856 47.3284 69.7132 46.9553 69.7132C46.1776 69.7132 45.9907 70.3271 45.9907 71.0607C45.9907 71.8937 46.2315 72.5839 46.9882 72.5839C47.3606 72.5839 47.6238 72.4194 47.887 72.1345V72.1352ZM42.4074 68.5631V73.7354H43.7444V68.5631H42.4074ZM41.6297 66.7221V67.7959C41.4323 67.7301 41.1698 67.6972 40.9724 67.6972C40.5888 67.6972 40.4138 67.8176 40.4138 68.1466V68.5631H41.5205V69.8126H40.4138V73.7354H39.0768V69.8126H38.3537V68.5631H39.0768V67.9387C39.0768 66.9741 39.6795 66.58 40.6546 66.58C40.9395 66.58 41.356 66.6129 41.6297 66.7228V66.7221ZM37.6957 73.7347H36.3587V70.9186C36.3587 70.1955 36.1942 69.7132 35.4711 69.7132C34.7914 69.7132 34.5723 70.1185 34.5723 70.8857V73.7347H33.2353V68.5624H34.5723V68.9131C34.846 68.6394 35.252 68.4532 35.8323 68.4532C37.2351 68.4532 37.695 69.5382 37.695 70.8094V73.7354L37.6957 73.7347ZM30.0139 68.4532C28.5236 68.4532 27.5919 69.6257 27.5919 71.1489C27.5919 72.7491 28.6111 73.8446 30.0139 73.8446C31.4167 73.8446 32.4359 72.7491 32.4359 71.1489C32.4359 69.5487 31.5042 68.4532 30.0139 68.4532ZM30.0139 72.5517C29.1592 72.5517 28.973 71.7299 28.973 71.1489C28.973 70.3488 29.302 69.7356 30.0139 69.7356C30.7258 69.7356 31.0548 70.3495 31.0548 71.1489C31.0548 71.7299 30.8686 72.5517 30.0139 72.5517ZM26.299 71.8944L27.1537 72.705C26.7155 73.2636 26.1128 73.8446 25.0936 73.8446C23.6803 73.8446 22.6387 72.7162 22.6387 71.1601C22.6387 69.7356 23.5046 68.4532 25.1153 68.4532C26.0358 68.4532 26.6714 68.8697 27.1425 69.5711L26.2661 70.4587C25.9595 70.0534 25.6305 69.7356 25.1048 69.7356C24.3922 69.7356 24.0198 70.3383 24.0198 71.1384C24.0198 71.8832 24.3488 72.5517 25.1153 72.5517C25.5864 72.5517 25.9812 72.2997 26.299 71.8944ZM19.3851 73.7347H18.0481V70.9186C18.0481 70.1955 17.8836 69.7132 17.1605 69.7132C16.4808 69.7132 16.2512 70.1185 16.2512 70.8857V73.7347H14.9142V67.2149L16.2512 66.5464V68.9131C16.5032 68.6065 17.0289 68.4532 17.5441 68.4532C18.9028 68.4532 19.3851 69.527 19.3851 70.8094V73.7354V73.7347ZM14.0917 72.1793L13.8943 73.5268C13.6206 73.7459 12.9626 73.8446 12.6119 73.8446C11.8013 73.8446 11.2203 73.1978 11.2203 72.2997V69.8119H10.3215V68.5624H11.2203V67.2149L12.5573 66.5464V68.5624H14.0693V69.8119H12.5573V71.9378C12.5573 72.4089 12.7323 72.5622 13.0501 72.5622C13.3679 72.5622 13.8607 72.3977 14.091 72.1786L14.0917 72.1793ZM8.25163 68.5631V73.7354H9.58863V68.5631H8.25163ZM7.55023 68.5631L5.91783 73.7354H4.69073L3.81433 70.5903L2.92673 73.7354H1.69963L0.0770324 68.5631H1.56733L2.34503 71.5654L3.22143 68.5631H4.43803L5.31443 71.5654L6.10333 68.5631H7.54953H7.55023ZM47.6896 56.3005V57.3631C47.3935 57.2861 47.1968 57.2532 47.0211 57.2532C46.5612 57.2532 46.4625 57.4177 46.4625 57.6809V58.1303H47.3389V59.3798H46.4625V63.3026H45.1696V59.3798H44.534V58.1303H45.1696V57.5059C45.1696 56.6071 45.6407 56.1472 46.7369 56.1472C47.0876 56.1472 47.3725 56.213 47.6903 56.3005H47.6896ZM31.7891 61.7906L31.6029 63.1059C31.3397 63.3138 30.8798 63.4125 30.562 63.4125C29.7731 63.4125 29.1592 62.821 29.1592 61.8781V59.3686H28.2604V58.1303H29.1592V56.7828L30.4521 56.1255V58.131H31.6575V59.3693H30.4521V61.5393C30.4521 61.9887 30.6383 62.1532 30.9561 62.1532C31.2739 62.1532 31.5805 61.9887 31.7891 61.7913V61.7906ZM25.7733 60.7056C25.7733 60.8701 25.7621 61.078 25.7516 61.155H22.7269C22.7815 61.8781 23.2855 62.1742 23.8448 62.1742C24.1738 62.1742 24.4692 62.0755 24.7324 61.8123L25.6529 62.59C25.2252 63.1598 24.4475 63.4118 23.7573 63.4118C22.2782 63.4118 21.4011 62.2505 21.4011 60.7378C21.4011 59.2251 22.3545 58.0204 23.702 58.0204C25.1482 58.0204 25.7733 59.3357 25.7733 60.7049V60.7056ZM22.7486 60.147H24.5896C24.535 59.566 24.1948 59.1719 23.6362 59.1719C23.0447 59.1719 22.7815 59.72 22.7486 60.147ZM20.7872 60.728C20.7872 62.0538 20.2391 63.4125 18.7712 63.4125C18.2014 63.4125 17.8507 63.2046 17.6204 62.9848V64.5626L16.3275 65.2094V58.1303H17.6204V58.481C17.9599 58.1744 18.3106 58.0211 18.7929 58.0211C20.1845 58.0211 20.7872 59.3364 20.7872 60.728ZM19.4502 60.7938C19.4502 60.0378 19.2528 59.2706 18.4751 59.2706C18.1132 59.2706 17.8283 59.4351 17.6204 59.7305V61.7031C17.8283 61.9992 18.179 62.1742 18.5521 62.1742C19.2752 62.1742 19.4509 61.5169 19.4509 60.7938H19.4502ZM15.4287 63.3033H14.1358V62.9414C13.8292 63.248 13.4344 63.4125 12.9304 63.4125C11.9112 63.4125 11.1111 62.7552 11.1111 61.6156C11.1111 60.476 11.8888 59.8733 13.1271 59.8733C13.4561 59.8733 13.7956 59.9174 14.1351 60.0812V59.8075C14.1351 59.3252 13.8173 59.1278 13.2475 59.1278C12.8422 59.1278 12.4586 59.2265 12.0533 59.4673L11.5381 58.5468C12.0967 58.1961 12.6336 58.0211 13.3245 58.0211C14.6286 58.0211 15.4287 58.6567 15.4287 59.8292V63.3026V63.3033ZM14.1358 61.7906V61.1333C13.8726 60.9688 13.5331 60.9142 13.2699 60.9142C12.7001 60.9142 12.4264 61.1662 12.4264 61.5827C12.4264 61.9775 12.6784 62.2953 13.1607 62.2953C13.4127 62.2953 13.8509 62.2078 14.1358 61.7913V61.7906ZM10.3992 63.3033H9.10633V60.4872C9.10633 59.7858 8.95303 59.2706 8.22993 59.2706C7.50683 59.2706 7.34233 59.7417 7.34233 60.4543V63.3033H6.04943V56.7835L7.34233 56.1262V58.4929C7.62723 58.208 7.97793 58.0218 8.55893 58.0218C9.92883 58.0218 10.3999 59.0739 10.3999 60.3885V63.3033H10.3992ZM5.33683 61.232C5.33683 62.7881 4.15313 63.4125 2.75103 63.4125C1.74303 63.4125 0.625132 63.0947 0.000732422 62.1742L0.965332 61.3195C1.41473 61.8564 2.06083 62.1084 2.71883 62.1084C3.49653 62.1084 3.94593 61.7577 3.94593 61.2649C3.94593 61.0675 3.86893 60.8701 3.54063 60.7063C3.29983 60.5859 3.00373 60.5089 2.42273 60.3668C2.06083 60.2793 1.31603 60.1036 0.855432 59.7312C0.395532 59.3588 0.263932 58.8219 0.263932 58.3508C0.263932 56.8934 1.51343 56.3019 2.74053 56.3019C3.80313 56.3019 4.57033 56.7401 5.18423 57.3645L4.21963 58.3067C3.77023 57.8573 3.33203 57.6053 2.65233 57.6053C2.07133 57.6053 1.64433 57.7915 1.64433 58.2738C1.64433 58.4817 1.72133 58.6245 1.92923 58.7449C2.17003 58.8765 2.51023 58.9752 3.03593 59.1068C3.66033 59.2713 4.24133 59.4134 4.71243 59.797C5.12893 60.1365 5.33683 60.5859 5.33683 61.2327V61.232ZM65.5732 58.3718L65.0454 59.6647C64.848 59.4785 64.6177 59.3469 64.3006 59.3469C63.6867 59.3469 63.5348 59.8621 63.5348 60.4865V63.3026H62.2419V58.1303H63.5348V58.4922C63.8309 58.1961 64.2033 58.0211 64.6198 58.0211C64.9817 58.0211 65.2995 58.131 65.5732 58.3718Z" fill="#2E2E38"/>
</g>
<defs>
<clipPath id="clip0_9904_15217">
<rect width="70" height="73.7282" fill="white" transform="translate(0 0.116455)"/>
</clipPath>
</defs>
</svg>
