<?xml version="1.0" standalone="no"?>
<!DOCTYPE svg PUBLIC "-//W3C//DTD SVG 20010904//EN"
 "http://www.w3.org/TR/2001/REC-SVG-20010904/DTD/svg10.dtd">
<svg version="1.0" xmlns="http://www.w3.org/2000/svg"
 width="539.687055pt" height="537.500000pt" viewBox="0 0 539.687055 537.500000"
 preserveAspectRatio="xMidYMid meet">
<metadata>
Created by potrace 1.16, written by Peter Selinger 2001-2019
</metadata>
<g transform="translate(-30.312945,569.000000) scale(0.100000,-0.100000)"
fill="#ffffff" stroke="none">
<path d="M1135 5672 c-125 -76 -229 -301 -256 -552 -22 -203 16 -476 81 -581
16 -27 30 -51 30 -53 0 -2 -24 9 -52 25 -29 16 -59 29 -66 29 -8 0 27 -43 77
-96 50 -53 90 -98 88 -100 -2 -2 -27 7 -55 21 -29 14 -55 25 -58 25 -3 0 8
-17 25 -37 17 -21 58 -72 91 -113 l61 -75 -28 -6 c-27 -5 -27 -6 17 -24 25
-10 83 -38 130 -62 46 -24 87 -43 90 -43 3 0 -10 12 -29 27 -161 127 -335 512
-382 842 -32 224 30 502 137 620 81 91 157 101 294 41 219 -96 456 -301 701
-606 129 -160 339 -457 339 -480 0 -2 -19 6 -42 20 -50 28 -139 56 -182 56
l-29 0 21 -23 c12 -13 22 -27 22 -31 0 -14 -182 0 -230 17 -24 9 -46 14 -49
11 -3 -2 15 -24 39 -49 24 -25 42 -47 39 -49 -8 -8 -181 43 -270 79 -48 19
-97 35 -110 36 -13 0 -33 4 -44 8 -39 15 81 34 186 29 55 -3 98 -4 97 -3 -2 2
-39 18 -83 36 -89 36 -117 54 -70 45 70 -13 195 -28 206 -24 15 5 -191 92
-254 107 -27 7 -86 14 -130 17 -119 8 -145 16 -82 25 95 14 257 9 350 -10 136
-28 132 -25 -85 63 -58 24 -129 51 -157 61 -90 32 -66 46 95 53 62 2 112 8
110 13 -4 9 -548 420 -548 413 0 -3 18 -28 39 -57 22 -28 38 -53 36 -55 -2 -3
-21 10 -42 27 -56 46 -64 38 -13 -15 l45 -46 -40 17 c-87 37 -83 24 14 -52 9
-7 11 -13 6 -13 -6 0 -15 4 -20 9 -6 4 -24 13 -42 19 -40 13 -55 -2 -84 -83
-41 -116 -35 -292 15 -481 55 -207 134 -359 236 -452 37 -33 115 -72 146 -72
l27 0 -23 25 c-19 20 -20 25 -7 25 21 0 112 -74 146 -119 l26 -35 -25 8 c-87
26 -165 44 -169 40 -3 -2 13 -23 35 -47 76 -80 76 -80 19 -73 -28 4 -70 3 -94
-1 l-43 -8 38 -25 c58 -38 55 -50 -12 -50 -81 0 -287 21 -298 30 -18 17 54 41
102 35 46 -6 47 -6 20 10 -44 25 -136 45 -237 50 l-96 6 65 -26 c88 -35 95
-45 33 -45 -29 0 -55 -4 -58 -10 -3 -5 1 -10 9 -10 22 0 96 -31 96 -40 0 -4
-15 -14 -32 -21 -18 -7 -51 -23 -72 -36 l-40 -22 82 0 c87 0 217 -29 285 -63
20 -10 37 -19 37 -21 0 -1 -48 -1 -106 1 -111 3 -248 -13 -238 -29 3 -5 17 -9
32 -9 15 0 44 -5 65 -11 l39 -10 -59 -28 c-32 -15 -64 -35 -70 -43 -11 -13 -4
-14 60 -10 71 4 158 -10 127 -21 -8 -3 -58 -15 -110 -27 -178 -41 -299 -119
-394 -254 -73 -103 -76 -117 -11 -58 90 83 204 129 297 120 l37 -3 -118 -88
c-138 -102 -293 -245 -356 -327 -25 -32 -45 -61 -45 -65 0 -3 27 17 60 44 33
27 88 66 122 86 69 41 208 99 216 91 2 -3 -19 -26 -49 -52 -125 -108 -360
-366 -347 -379 2 -3 21 7 41 21 63 42 238 99 237 77 0 -4 -29 -27 -64 -51 -34
-23 -102 -81 -149 -130 -86 -85 -202 -230 -193 -239 2 -2 22 5 44 16 51 26
174 72 179 68 2 -3 -27 -46 -65 -98 -38 -52 -84 -121 -103 -154 l-33 -60 89
81 c174 156 315 256 493 349 40 21 71 40 68 42 -4 5 -339 -32 -383 -42 -13 -3
-23 -1 -23 5 0 15 191 164 341 267 71 48 129 90 129 93 0 3 -55 0 -122 -7 -68
-8 -142 -12 -166 -11 l-44 3 89 71 c48 38 148 116 221 173 73 57 136 110 139
118 9 23 -16 33 -87 34 -64 1 -64 1 -34 14 49 22 178 44 315 54 136 10 212 32
190 54 -8 8 -77 13 -229 17 l-217 5 40 18 c68 31 225 83 343 113 61 16 112 32
112 36 0 4 -37 30 -82 59 l-83 51 50 -6 c28 -4 153 -20 279 -37 125 -16 230
-28 232 -27 2 2 -30 37 -71 78 -41 40 -75 77 -75 81 0 4 21 -1 48 -11 92 -34
93 -33 27 31 -36 34 -63 64 -60 67 6 6 156 -66 267 -129 48 -27 90 -49 92 -49
2 0 -19 34 -46 76 -48 70 -108 215 -108 258 0 14 22 -1 83 -59 45 -43 112
-107 150 -142 37 -36 77 -83 88 -105 47 -93 80 -309 59 -388 -17 -64 -42 -69
-137 -30 -69 29 -85 32 -143 27 -37 -4 -100 -20 -145 -38 -109 -42 -158 -57
-224 -65 l-56 -7 40 -18 c22 -10 48 -19 58 -19 37 0 9 -24 -64 -54 -72 -29
-78 -30 -241 -31 -92 0 -164 -3 -160 -6 19 -18 198 -80 275 -96 48 -9 87 -20
87 -24 0 -18 -267 -65 -400 -71 l-55 -3 68 -32 c76 -36 127 -70 127 -84 0 -5
-20 -9 -44 -9 -62 0 -179 -24 -261 -53 -87 -31 -155 -60 -155 -67 0 -3 60 -4
132 -2 138 3 218 -3 218 -18 0 -4 -29 -22 -65 -39 -36 -18 -65 -34 -65 -36 0
-2 33 -14 73 -25 311 -92 666 -223 900 -333 l118 -56 45 62 c147 198 250 383
281 500 10 37 21 67 26 67 9 0 84 -114 92 -141 4 -10 11 -19 17 -19 14 0 2
257 -18 395 -12 86 -70 292 -79 283 -2 -2 0 -22 5 -45 4 -24 4 -43 -1 -43 -11
0 -77 120 -107 194 -33 82 -82 279 -82 331 0 65 43 218 91 329 51 115 69 131
69 59 0 -52 29 -176 80 -343 25 -79 33 -125 34 -187 0 -46 2 -83 2 -83 1 0 18
45 39 100 35 94 55 129 55 98 1 -109 54 -570 96 -826 33 -204 38 -215 53 -127
39 219 111 802 111 895 0 25 4 51 9 59 10 16 12 12 67 -129 l29 -75 7 110 c5
89 14 134 47 238 38 118 56 202 64 287 3 33 5 30 50 -61 59 -120 100 -270 101
-364 0 -57 -9 -95 -46 -207 -48 -140 -95 -245 -130 -288 l-19 -25 5 40 6 40
-19 -40 c-41 -91 -64 -222 -69 -405 -6 -244 -7 -241 52 -142 28 45 54 82 58
82 4 0 26 -36 48 -80 22 -44 59 -110 81 -147 46 -75 217 -333 229 -347 5 -5
49 15 99 43 218 125 585 281 794 336 37 10 67 21 67 25 0 4 -12 12 -27 19 -26
12 -27 13 -8 24 12 7 86 13 190 15 188 5 188 5 49 57 -93 35 -219 65 -276 65
-32 0 -48 4 -48 13 0 16 49 49 125 84 l60 28 -100 7 c-118 8 -206 23 -295 51
l-65 20 85 17 c101 22 290 86 290 100 0 3 -52 4 -115 2 -134 -5 -224 9 -312
46 -63 27 -79 42 -45 42 9 0 35 9 57 19 l40 18 -55 8 c-30 4 -104 25 -165 47
-60 22 -137 45 -171 51 -55 9 -69 8 -125 -12 -135 -47 -137 -47 -161 -24 -46
47 -29 299 29 421 19 40 50 79 106 132 44 41 112 105 150 142 39 38 72 67 73
65 2 -2 -3 -31 -11 -65 -19 -80 -63 -175 -108 -234 -20 -27 -34 -48 -31 -48 4
0 32 15 63 34 86 52 257 136 277 136 13 0 1 -18 -41 -60 -33 -33 -55 -60 -50
-60 6 0 34 9 64 20 29 12 56 18 59 15 3 -3 -30 -41 -73 -85 -44 -44 -74 -80
-67 -80 6 0 129 16 273 35 144 20 264 33 266 31 3 -2 -8 -12 -24 -22 -84 -51
-134 -86 -130 -90 2 -2 58 -17 123 -34 117 -28 305 -90 353 -115 21 -11 -10
-13 -197 -17 -153 -2 -225 -7 -234 -16 -23 -23 59 -44 232 -58 100 -8 193 -21
235 -33 38 -12 72 -22 75 -22 3 -1 -28 -5 -68 -9 -40 -3 -78 -12 -84 -18 -17
-17 20 -52 180 -175 74 -56 162 -124 195 -152 l61 -50 -34 -3 c-19 -1 -95 3
-168 11 -73 7 -131 10 -130 6 2 -4 57 -43 123 -86 119 -79 347 -255 353 -273
2 -6 -9 -8 -25 -5 -15 2 -89 12 -163 20 -74 9 -156 18 -182 21 -27 3 -48 4
-48 1 0 -3 43 -29 95 -57 171 -92 394 -253 470 -340 11 -12 37 -36 59 -53 l39
-31 -33 60 c-45 80 -96 161 -133 207 -16 21 -27 41 -24 44 7 6 95 -27 170 -64
29 -15 47 -19 47 -12 0 20 -102 149 -177 225 -39 39 -107 99 -152 134 -45 34
-80 64 -78 66 6 6 148 -36 187 -56 20 -10 52 -31 69 -46 18 -14 34 -24 37 -22
12 13 -127 176 -259 306 -81 78 -141 142 -134 142 8 0 58 -22 113 -49 99 -49
197 -115 244 -164 43 -46 43 -29 -1 33 -61 87 -257 272 -387 365 -61 44 -111
83 -112 86 0 3 30 2 68 -3 114 -13 194 -51 284 -136 27 -25 50 -43 52 -41 3 2
-15 33 -38 67 -123 184 -218 248 -454 307 -52 13 -96 26 -99 28 -18 19 163 21
212 3 40 -15 -50 54 -92 70 -24 9 -43 20 -43 25 0 4 21 11 48 14 26 3 56 10
67 14 36 14 -118 33 -236 29 -60 -2 -109 -2 -109 0 0 6 107 50 151 63 24 7 94
15 154 18 l110 6 -72 38 c-40 20 -73 39 -73 42 0 2 25 12 55 21 30 10 55 21
55 26 0 4 -20 8 -44 8 -25 0 -47 4 -50 9 -3 5 25 21 62 35 l67 27 -85 -6 c-81
-5 -226 -37 -243 -54 -5 -5 10 -8 32 -8 41 0 101 -20 101 -33 0 -7 -190 -30
-256 -30 -53 0 -104 10 -104 21 0 5 17 20 37 33 l36 25 -91 3 -92 3 46 53 c26
29 44 56 40 59 -3 4 -44 -5 -91 -19 -47 -14 -85 -23 -85 -20 0 26 116 134 158
147 23 7 23 7 7 -19 -17 -25 -16 -26 2 -26 40 0 123 53 180 114 140 150 243
451 243 708 0 136 -15 199 -66 276 -1 2 -24 -6 -49 -17 -26 -12 -50 -21 -54
-21 -3 1 14 19 39 42 25 22 37 38 27 34 -11 -3 -31 -9 -45 -13 -25 -6 -26 -5
-12 13 8 10 21 23 28 27 6 4 12 13 12 19 0 6 -16 -2 -36 -17 -45 -34 -51 -28
-18 16 14 19 30 43 36 53 10 19 10 19 -15 0 -14 -10 -136 -102 -271 -204 -135
-102 -245 -188 -245 -192 -1 -5 41 -8 92 -8 88 0 167 -13 167 -28 0 -4 -62
-31 -138 -61 -172 -67 -249 -104 -207 -96 137 23 194 27 304 22 68 -3 128 -10
133 -15 5 -5 -29 -11 -84 -15 -51 -3 -124 -13 -163 -22 -70 -16 -260 -93 -251
-102 2 -3 40 0 83 6 43 6 96 14 118 17 54 7 36 -7 -53 -41 -40 -16 -75 -31
-77 -34 -2 -3 45 -6 103 -6 109 0 172 -10 156 -24 -5 -4 -36 -14 -69 -21 -33
-7 -77 -21 -97 -31 -39 -20 -250 -80 -257 -74 -2 3 13 25 33 50 21 25 36 45
34 45 -2 0 -28 -7 -58 -15 -67 -18 -210 -20 -210 -3 0 6 8 20 18 31 17 20 16
20 -33 14 -27 -4 -81 -22 -119 -42 -38 -19 -71 -33 -73 -31 -5 5 168 265 240
361 236 312 514 581 705 683 94 50 183 82 226 82 82 -1 176 -83 231 -203 56
-124 69 -192 69 -372 0 -173 -10 -229 -74 -424 -17 -52 -29 -96 -26 -98 6 -6
42 60 65 121 28 76 50 204 57 340 13 243 -63 500 -189 641 -62 70 -91 85 -166
85 -50 0 -72 -6 -136 -39 -177 -92 -384 -249 -580 -442 -71 -71 -131 -126
-134 -123 -2 2 10 51 27 108 18 57 32 107 32 111 0 4 -43 -39 -96 -94 -94 -99
-266 -239 -272 -221 -2 4 38 66 87 137 50 70 91 132 91 137 0 5 -20 -10 -45
-33 -57 -52 -140 -105 -231 -148 -106 -48 -109 -45 -58 45 41 72 109 253 102
274 -2 5 -22 -17 -45 -50 -59 -84 -134 -163 -219 -232 -73 -58 -211 -146 -218
-139 -2 2 25 53 60 114 35 60 64 114 64 119 0 20 -122 -111 -174 -187 l-54
-78 -23 38 c-32 52 -103 127 -160 168 -62 46 -69 44 -27 -7 64 -79 108 -139
108 -149 0 -15 -131 40 -210 88 -45 28 -113 85 -168 141 l-93 95 34 -74 c19
-41 54 -113 77 -161 23 -48 40 -92 39 -97 -6 -17 -148 97 -248 198 -105 108
-104 99 11 -83 38 -60 67 -110 65 -112 -11 -12 -167 114 -264 213 -62 63 -113
113 -113 110 0 -2 16 -52 36 -111 20 -59 34 -110 31 -112 -2 -3 -66 54 -141
127 -227 219 -365 324 -554 421 -81 42 -100 48 -155 48 -43 0 -71 -6 -92 -18z
m439 -1198 c79 -20 167 -67 225 -120 l46 -42 -60 14 c-33 7 -71 14 -85 13
l-25 0 25 -14 c14 -8 53 -24 88 -36 34 -13 62 -26 62 -29 0 -3 -35 -2 -77 2
-64 7 -98 19 -188 62 -60 30 -119 61 -130 70 l-20 15 20 0 c11 1 65 -6 120
-14 55 -7 101 -12 103 -10 2 2 -18 15 -45 28 -73 38 -139 77 -129 77 4 0 36
-7 70 -16z m2936 11 c0 -3 -41 -25 -91 -51 -50 -25 -89 -47 -88 -49 2 -1 47 4
99 11 170 26 173 18 20 -58 -124 -62 -141 -68 -215 -73 -89 -6 -87 -3 34 47
30 12 49 24 43 26 -12 4 -93 -11 -125 -23 -33 -13 -16 10 41 56 69 56 107 76
187 100 61 18 95 23 95 14z m-2950 -228 c70 -31 195 -105 188 -113 -2 -1 -30
3 -63 11 -33 8 -71 16 -85 20 -29 6 -151 115 -129 115 8 0 48 -15 89 -33z
m2925 -31 c-40 -37 -74 -60 -80 -56 -5 4 -37 -1 -70 -11 -69 -22 -79 -23 -70
-9 21 35 224 140 270 140 15 0 2 -17 -50 -64z m-2168 -1061 c52 -37 31 -115
-32 -115 -36 0 -75 36 -75 69 0 51 61 78 107 46z m1459 -11 c20 -19 24 -31 19
-52 -16 -63 -67 -81 -110 -37 -28 27 -31 45 -14 78 24 45 67 50 105 11z
m-1613 -49 c-16 -157 126 -268 270 -210 9 4 17 3 17 -3 0 -15 -76 -42 -118
-42 -43 0 -107 28 -141 60 -32 31 -61 97 -61 143 0 35 23 107 34 107 2 0 2
-25 -1 -55z m1712 -25 c26 -151 -140 -275 -282 -210 -50 22 -57 34 -12 18 47
-16 132 -5 172 22 67 46 109 145 93 217 -6 26 -5 27 8 10 8 -11 17 -36 21 -57z
m-1427 -18 c4 -28 -24 -40 -45 -19 -21 21 -9 49 19 45 15 -2 24 -11 26 -26z
m1162 8 c13 -25 5 -40 -21 -40 -22 0 -34 22 -25 45 8 21 33 19 46 -5z"/>
<path d="M5068 4510 c-32 -16 -58 -27 -58 -22 -1 4 -25 -43 -54 -105 -66 -137
-101 -190 -180 -270 -33 -35 -58 -63 -55 -63 5 0 88 37 214 95 l30 14 -27 0
c-16 1 -28 5 -28 9 0 10 138 184 154 194 6 4 8 10 4 13 -3 4 -25 -3 -48 -15
-23 -12 -44 -19 -47 -16 -8 8 47 73 111 134 78 74 75 79 -16 32z"/>
<path d="M4535 2502 c-267 -100 -501 -210 -673 -317 -112 -68 -119 -77 -99
-109 l16 -24 118 38 c65 21 169 50 231 66 61 16 112 32 112 35 0 3 -36 14 -80
24 -43 10 -77 21 -75 25 2 4 37 10 77 13 40 4 129 11 198 17 174 15 391 40
415 47 16 5 11 8 -20 14 -22 4 -59 8 -82 8 -59 1 -54 17 10 31 112 26 319 24
447 -6 23 -5 24 -4 5 7 -35 22 -409 171 -440 175 -19 3 -76 -13 -160 -44z"/>
<path d="M1040 2459 c-184 -80 -203 -89 -199 -93 2 -2 33 2 69 10 36 7 104 14
152 14 85 0 238 -26 238 -40 0 -4 -41 -11 -92 -15 -62 -4 -87 -10 -76 -16 8
-5 125 -18 259 -29 320 -26 461 -41 477 -50 8 -4 -45 -19 -117 -35 -72 -15
-130 -29 -128 -31 1 -2 81 -23 177 -48 96 -25 234 -63 305 -85 l130 -39 17 22
c10 11 18 24 18 28 0 23 -333 195 -546 281 -178 72 -507 187 -533 186 -9 0
-77 -27 -151 -60z"/>
<path d="M900 2195 c-168 -19 -338 -37 -377 -41 -40 -4 -73 -10 -73 -13 0 -4
39 -14 87 -24 114 -23 253 -65 253 -76 0 -12 -56 -20 -148 -23 -40 -1 -75 -5
-77 -8 -7 -12 138 -88 210 -111 39 -12 74 -26 80 -31 19 -17 -203 -2 -267 18
-69 21 80 -86 163 -117 27 -11 86 -25 132 -32 l82 -13 -70 -23 c-42 -14 -107
-25 -164 -28 -60 -4 -88 -9 -78 -14 44 -25 211 -71 277 -76 72 -5 79 -4 145
29 93 47 154 65 461 143 144 36 279 71 300 79 37 13 38 14 14 20 -40 9 -233
25 -390 32 -243 11 -201 23 85 23 173 1 320 -5 410 -14 144 -15 202 -18 194
-10 -8 7 -285 81 -410 109 -147 33 -175 33 -359 -4 -211 -42 -251 -40 -128 6
l63 23 -192 0 c-112 1 -193 5 -193 10 0 16 113 80 242 137 67 30 123 56 126
59 11 11 -103 2 -398 -30z"/>
<path d="M4695 2222 c6 -5 44 -24 85 -42 110 -48 241 -115 270 -138 l25 -20
-25 -6 c-14 -3 -83 -9 -154 -13 l-129 -8 81 -34 c44 -19 93 -44 109 -57 l28
-22 -65 5 c-114 8 -290 33 -465 64 -191 35 -235 34 -395 -5 -85 -21 -92 -24
-70 -33 24 -10 24 -11 -15 -18 -63 -11 -65 -15 -5 -10 87 8 662 5 678 -4 8 -4
-62 -11 -155 -14 -193 -8 -335 -18 -329 -24 14 -15 133 -35 261 -44 83 -6 166
-15 187 -20 36 -9 179 -98 268 -166 43 -33 47 -35 105 -28 71 8 143 24 245 56
l75 23 -98 12 c-96 13 -189 35 -216 53 -16 10 -15 10 138 30 65 8 104 20 167
51 45 23 90 51 100 62 19 21 19 21 -1 13 -30 -12 -355 -19 -355 -7 0 5 27 12
60 16 103 12 310 89 310 116 0 6 -29 10 -66 10 -67 0 -154 17 -154 30 0 7 114
36 275 69 50 10 83 21 75 24 -16 7 -405 50 -595 66 -249 22 -260 23 -250 13z"/>
<path d="M2916 2204 c-166 -53 -272 -210 -237 -351 33 -133 135 -218 291 -245
183 -31 363 48 432 191 33 69 31 169 -4 237 -33 63 -94 118 -168 152 -71 32
-236 41 -314 16z m244 -114 c63 -12 160 -54 160 -70 0 -7 -82 -10 -267 -8
-170 2 -268 7 -268 13 0 13 64 44 123 60 58 16 181 18 252 5z m-307 -241 c50
-23 64 -98 15 -80 -26 9 -63 65 -53 81 8 12 9 12 38 -1z m431 -5 c8 -22 -20
-71 -45 -79 -49 -16 -50 53 -1 79 35 19 39 19 46 0z"/>
<!-- Eye pupils: explicit black filled circles on top of the white face
     so the "negative" (white-on-dark) variant still reads as a face.
     Coordinates are in the same path-space as the rest of the logo;
     the parent <g> transform inverts Y and scales 0.1x. -->
<circle id="rak00n-eye-l" class="rak00n-eye" cx="2870" cy="1810" r="95" fill="#76b900"/>
<circle id="rak00n-eye-r" class="rak00n-eye" cx="3260" cy="1810" r="95" fill="#76b900"/>
<path d="M4130 2136 c-166 -52 -340 -125 -300 -126 8 0 49 6 90 14 41 8 76 13
78 11 2 -2 -24 -18 -58 -35 -34 -17 -60 -33 -58 -36 5 -4 318 43 325 50 2 2
-8 6 -22 10 -27 7 -34 26 -9 26 8 0 58 -5 110 -11 84 -10 97 -9 113 5 10 9 28
17 42 17 78 4 -86 16 -184 13 -64 -1 -115 1 -112 5 2 5 55 23 117 41 152 44
159 49 58 49 -68 0 -106 -7 -190 -33z"/>
<path d="M1443 2142 c-46 -9 -83 -20 -83 -24 0 -4 26 -8 58 -8 67 0 301 -26
309 -33 3 -3 -15 -11 -38 -17 -24 -6 -48 -12 -54 -14 -5 -2 15 -6 45 -10 48
-7 386 -67 459 -82 26 -5 26 -5 -3 12 -101 57 -515 195 -579 193 -18 -1 -69
-9 -114 -17z"/>
<path d="M4338 1989 c15 -6 30 -5 40 1 13 7 8 9 -23 9 -35 0 -37 -1 -17 -10z"/>
<path d="M1930 1813 c-14 -3 -95 -37 -180 -77 -230 -108 -231 -109 -455 -131
-181 -18 -223 -27 -281 -60 -36 -21 -94 -88 -94 -109 0 -9 185 -1 235 10 l30
7 -42 -45 c-52 -57 -135 -169 -129 -175 4 -5 33 12 189 114 55 36 101 62 104
60 2 -3 -7 -27 -20 -54 -40 -79 -68 -193 -47 -193 5 0 10 8 10 18 0 36 119
187 135 171 2 -3 0 -21 -5 -40 -12 -40 -22 -198 -13 -211 3 -6 19 14 35 43 28
53 84 119 100 119 4 0 8 -64 8 -142 0 -141 5 -155 30 -88 20 53 91 161 104
157 16 -5 55 -147 64 -236 5 -42 11 -69 15 -61 3 8 18 55 33 103 30 97 43 99
45 7 0 -30 4 -75 8 -100 l7 -45 22 74 c31 98 68 181 82 181 10 0 34 -48 112
-220 16 -34 16 -32 11 73 -3 59 -3 107 0 107 3 0 47 -76 99 -169 51 -93 94
-168 96 -166 2 1 -4 40 -12 86 -19 103 -30 219 -22 219 3 0 33 -42 67 -92 35
-51 78 -113 97 -138 35 -45 38 -40 16 27 -5 16 15 -6 88 -91 16 -19 16 -16 -1
24 -20 46 -46 158 -39 166 2 2 23 -22 45 -54 38 -54 239 -273 294 -319 23 -19
20 -11 -22 73 -50 100 -79 203 -78 276 l0 43 16 -35 c38 -83 135 -274 159
-311 37 -59 81 -176 89 -239 l8 -55 19 55 c42 122 65 244 78 405 1 6 6 -1 12
-15 6 -14 13 -95 17 -180 l6 -155 19 50 c39 100 165 393 192 446 25 48 29 51
32 28 2 -14 -4 -83 -12 -154 -8 -71 -14 -130 -13 -132 2 -1 29 37 62 85 69
104 190 266 211 282 11 10 14 8 14 -11 0 -13 -5 -42 -10 -64 -5 -22 -7 -41 -5
-43 2 -2 16 20 30 50 40 79 95 168 105 168 4 0 -2 -47 -14 -105 -12 -58 -20
-105 -16 -105 3 0 53 64 111 141 101 138 104 141 107 108 2 -19 -1 -62 -7 -94
-5 -33 -8 -61 -6 -63 1 -2 17 23 35 55 26 47 101 163 116 182 11 13 47 -41 62
-93 l18 -61 46 98 c26 53 52 97 57 97 6 0 31 -26 54 -59 40 -53 53 -78 72
-136 5 -16 10 -13 31 24 34 56 42 142 20 207 -9 26 -16 54 -16 61 0 42 96 -66
107 -119 8 -43 23 -33 23 15 0 51 10 89 21 85 4 -2 62 -49 129 -106 66 -56
120 -97 120 -91 0 17 -56 114 -108 188 -53 75 -46 75 86 5 45 -24 82 -40 82
-36 0 5 -22 41 -50 80 -27 39 -50 74 -50 76 0 7 41 0 178 -31 63 -14 116 -23
118 -20 3 2 -13 27 -35 55 -53 66 -145 112 -311 153 -69 17 -200 52 -293 79
-226 66 -298 80 -420 80 -90 0 -108 -3 -131 -21 -14 -11 -26 -23 -26 -27 0 -4
49 -15 110 -25 107 -17 300 -69 330 -88 11 -7 7 -8 -15 -4 -198 44 -483 74
-496 53 -12 -19 -11 -28 4 -28 36 0 397 -178 397 -195 0 -2 -34 12 -75 31
-176 81 -411 142 -421 109 -2 -5 27 -31 64 -58 37 -26 83 -61 102 -78 l35 -31
-55 32 c-30 17 -88 47 -127 67 l-73 35 -82 -23 c-77 -22 -101 -24 -328 -24
-135 -1 -281 -4 -325 -9 -100 -10 -236 5 -332 38 l-71 24 -75 -32 c-41 -18
-104 -49 -141 -70 -36 -20 -66 -34 -66 -30 0 9 14 20 128 100 51 36 89 70 86
76 -16 25 -227 -26 -398 -96 -49 -20 -91 -34 -94 -32 -11 11 217 123 325 160
34 11 64 26 65 31 8 29 -306 7 -456 -31 -77 -20 -82 -11 -10 16 89 33 190 58
297 73 54 8 100 17 104 20 11 12 -19 37 -56 47 -35 10 -181 12 -231 3z m1635
-281 c-6 -4 -48 -35 -93 -69 -176 -132 -278 -173 -435 -173 -122 0 -179 15
-292 74 -77 40 -259 166 -251 173 2 2 16 -1 32 -7 16 -6 74 -23 129 -37 55
-14 118 -36 140 -48 59 -35 148 -55 245 -55 98 0 170 18 248 61 29 17 96 41
149 55 53 14 103 29 112 34 18 10 31 3 16 -8z"/>
</g>
</svg>
